<?xml version="1.0" encoding="utf-8"?>
<svg xmlns="http://www.w3.org/2000/svg" viewBox="0 0 512 512">
  <defs>
    <style>.cls-1{fill:#78d2fa;}.cls-2{fill:#a5dc69;}</style>
  </defs>
  <g data-name="Capa 2" id="Capa_2">
    <g data-name="Capa 1" id="Capa_1-2">
      <path class="cls-1" d="M379,469C261.38,537,111,496.65,43.06,379s-27.61-268,90-336,268-27.61,335.95,90S496.64,401.12,379,469Z"/>
      <path class="cls-2" d="M273.4,182.45c-1.77.42-5.2,1.29-6.68,2.48-1.85,1.48,1,3.41,0,4.26-1.83,1.46-3.15,4.11-7.06,3.86-8.16-.52-20.71-11.08-28.16-15.07,12-12.38-7-14.23-14.42-13.61-9.6.8-26.21-.06-34.89,4.82-6,3.39-14.11,17.45-19,23-6.75,7.78-13.55,14.53-17.94,23.84C129.15,250.22,154,289.43,193,284.84c10.84-1.27,22.21-8.08,31.81.91,7.08,6.62,3.33,12.86,5.21,20.58,1.62,6.69,9,10.8,11.59,16.94,4.91,11.77,1.8,19.13-1.71,30-4.6,14.24,7.3,31.16,11.93,44.9,2.34,6.93,9.13,26.31,15.81,29.34,10.49,4.77,26.93-9.53,33.2-17.23,4.9-6,3.3-12.12,6.59-17.75,3.56-6.1,8.06-7.93,10.56-15.79,2.69-8.47,5.48-10.57,11.16-16.75,9.14-10,7.72-15.77,4.07-27.56-7.6-24.51,20-36,32.42-54,13-18.78-12.11-12.52-21.94-18.94-10.11-6.61-14.52-19.16-19.39-29.57s-8.91-26-17-34.6C301.13,188.76,282.23,185.71,273.4,182.45Z"/>
      <path class="cls-2" d="M400.36,346.84q-5.89,19.83-11.77,39.65c-2.74,9.23-12.43,39.45-26,20.1-5.17-7.36-1-17,1.91-23.77,3.64-8.54-1.27-12.84,1.26-20.92,2.91-9.27,14.87-9.59,20.53-16.1,4-4.55,6.39-11.77,9.27-17.09Q398,337.77,400.36,346.84Z"/>
      <path class="cls-2" d="M469,133.08A245.68,245.68,0,0,0,273.64,10.72L241.48,51.06,172.55,75.23l-18.49,44.83,28.52,40,3-8.45A35.51,35.51,0,0,1,219,128.06h47l54,19,18.62,17.77V176.1l25.87,49.57,7.54-2.78a120,120,0,0,0,43.31-27.72l-6.25-9.37a4.49,4.49,0,0,1,3.73-7H428a15.09,15.09,0,0,1,11.48,5.29l12.32,14.42a15,15,0,0,1,2.71,4.65l13.59,37.38,6.48-6.47a22.12,22.12,0,0,0,6.24-15.41,16.62,16.62,0,0,1,5.56-12.14l4.95-4.42a16.7,16.7,0,0,1,4.12-2.69A245.74,245.74,0,0,0,469,133.08Z"/>
      <path class="cls-2" d="M101.11,142.69l11.76-12.61a32.12,32.12,0,0,0,6.22-34.16h0A35.9,35.9,0,0,0,90.63,74,246,246,0,0,0,12.41,222.48c9.18,8,18.8,16.63,18.74,17.38-.11,1.45,34.41-4.34,34.41-4.34L47.79,209.46l25.52-18.25Z"/>
      <path class="cls-2" d="M125,387.74a21.11,21.11,0,0,0,13.56-26.6l-3.17-9.75a21.1,21.1,0,0,1,0-13.1h0a21.11,21.11,0,0,0-16-27.3l-24.85-4.85-45.4-34.52L11.64,283.81A246.59,246.59,0,0,0,103.9,449.35L115.09,391Z"/>
      <path d="M374,460.39l-.39.22a10,10,0,0,0,10,17.3l.38-.23a10,10,0,1,0-10-17.29Z"/>
      <path d="M477.69,128.08A255.92,255.92,0,0,0,128.08,34.4,256,256,0,0,0,347.6,495.09a10,10,0,0,0-7.18-18.67,234.42,234.42,0,0,1-225.58-31l9-46.77,4.31-1.4a31.14,31.14,0,0,0,20-39.2l-3.17-9.75a11,11,0,0,1,0-6.89,31.1,31.1,0,0,0-23.59-40.23l-22.57-4.41L55.22,263.66a10,10,0,0,0-9.14-1.55l-25.5,8.28a234.58,234.58,0,0,1,0-27.3c1,.93,1.66,1.57,2.06,2a10.18,10.18,0,0,0,1.84,2.25c2.09,1.9,4,2.76,7.93,2.76,3.64,0,9-.73,17.92-2,8.44-1.25,16.83-2.65,16.91-2.67a10,10,0,0,0,6.61-15.49l-12.26-18,17.56-12.56A10,10,0,0,0,82,196.18l27.23-47.52,11-11.76a42.25,42.25,0,0,0,8.15-44.8,46,46,0,0,0-18.22-21.45,235.79,235.79,0,0,1,143.2-50.47l-17.86,22.4L169.24,65.79a10,10,0,0,0-5.94,5.63l-18.49,44.83a10,10,0,0,0,1.11,9.62l27,37.83c-3.87,3.53-7.64,8.67-12.13,15.05-2,2.8-3.84,5.44-5.13,6.93-1.11,1.29-2.23,2.55-3.34,3.79-5.81,6.54-11.82,13.3-16.09,22.33-9.38,19.85-7.48,42.94,4.95,60.23,12,16.73,31.84,25.23,53,22.74a77.07,77.07,0,0,0,9.77-2c8.57-2.12,11.29-2.33,14,.25,1.33,1.25,1.46,1.49,1.43,5.73a38.88,38.88,0,0,0,.89,9.91c1.5,6.15,5.36,10.39,8.45,13.81a22.15,22.15,0,0,1,3.63,4.62c3.12,7.48,1.76,11.62-1.21,20.69-.26.77-.52,1.56-.78,2.38-4.52,14,1.78,27.87,7.34,40.12,1.81,4,3.51,7.73,4.63,11.05,9,26.68,15.73,32.79,21.14,35.25a20.8,20.8,0,0,0,8.73,1.85c14.41,0,29.45-13.39,36.36-21.87,4.34-5.33,5.41-10.66,6.19-14.56a16.1,16.1,0,0,1,1.28-4.47,26.51,26.51,0,0,1,3.28-4.22,34.67,34.67,0,0,0,8.18-13.58c1.64-5.17,2.83-6.44,6.79-10.65.68-.73,1.42-1.51,2.2-2.37,13.32-14.49,9.89-25.56,6.26-37.28-3.06-9.87,2.29-16.17,15.22-28.21,5.6-5.22,11.4-10.62,15.87-17.1,2-2.84,7.93-11.47,4.24-20-3.62-8.39-12.81-9.8-20.2-10.93-2.92-.45-7.32-1.13-8.73-2-6.18-4.05-10-12.49-13.63-20.65-.73-1.63-1.45-3.23-2.18-4.79-1.3-2.78-2.6-6.14-4-9.7-3.64-9.41-7.76-20.09-14.78-27.53-6.31-6.68-18.2-9.9-28.7-12.74-3.52-1-6.86-1.86-9.05-2.67a10.07,10.07,0,0,0-5.75-.36c-5.11,1.2-8.29,2.52-10.66,4.42a12.47,12.47,0,0,0-3.56,4.79,116.08,116.08,0,0,1-11.79-7.18l-.19-.13A14.22,14.22,0,0,0,244,165c-5.59-11.81-24.13-10.89-27.79-10.58-2.08.18-4.71.27-7.49.37-4.37.15-9.2.33-14,.86L195,155a25.58,25.58,0,0,1,24-16.89h5.69a10,10,0,0,0,0-20H219a45.66,45.66,0,0,0-38.71,21.59l-14.91-20.9,14.67-35.57L244.79,60.5a10,10,0,0,0,4.51-3.2l28.76-36.08c73.49,7,142.67,48.19,182.32,116.86a233.6,233.6,0,0,1,23.56,57.23l-4.24,3.78a26.71,26.71,0,0,0-8.9,19.43,1.93,1.93,0,0,1,0,.24l-6.9-19a25.15,25.15,0,0,0-4.5-7.72l-12.32-14.43A25.06,25.06,0,0,0,428,168.83H412.91a14.48,14.48,0,0,0-12.05,22.51l1.52,2.3a110.88,110.88,0,0,1-33,19.6L348.7,173.65v-8.83a10,10,0,0,0-3.1-7.24L327,139.81a10,10,0,0,0-3.59-2.2l-16.75-5.88A10,10,0,1,0,300,150.59l14.73,5.18,14,13.32v7a10,10,0,0,0,1.14,4.63l25.87,49.57A10,10,0,0,0,368,235.05l7.53-2.78a130.71,130.71,0,0,0,46.92-30,10,10,0,0,0,1.25-12.61l-.53-.8H428a5.1,5.1,0,0,1,3.87,1.78L444.18,205a5,5,0,0,1,.91,1.56L458.69,244a10,10,0,0,0,16.47,3.65l6.47-6.47a31.22,31.22,0,0,0,8.26-15c10,80.21-21.44,163.18-87.91,215.35a10,10,0,1,0,12.35,15.73,256,256,0,0,0,63.36-329.13ZM47.28,282.75,88.52,314.1A10,10,0,0,0,92.65,316l24.85,4.86a11.1,11.1,0,0,1,8.43,14.36,30.94,30.94,0,0,0,0,19.31l3.17,9.75a11.13,11.13,0,0,1-7.13,14L112,381.46a10,10,0,0,0-6.73,7.63l-8,41.75A238.87,238.87,0,0,1,51.72,374a234.68,234.68,0,0,1-29-83.28ZM21.17,240.48a11.39,11.39,0,0,0,.17,1.29A9.83,9.83,0,0,1,21.17,240.48ZM109.84,99.72a22.2,22.2,0,0,1-4.28,23.54L93.8,135.86a9.84,9.84,0,0,0-1.37,1.85L65.72,184.35,42,201.33a10,10,0,0,0-2.45,13.76l8.88,13c-5.12.76-9.71,1.39-12.77,1.72-.58-.56-1.2-1.13-1.83-1.72-2.38-2.21-5.68-5.16-10.61-9.47A236.3,236.3,0,0,1,93.64,84.89,26,26,0,0,1,109.84,99.72Zm99.62,75c3-.11,5.89-.21,8.45-.43a27.58,27.58,0,0,1,4.26,0,10,10,0,0,0,4.6,12.44c1.87,1,4.48,2.75,7.25,4.59,7.81,5.21,16.67,11.12,25,11.65a16.64,16.64,0,0,0,13.59-5.66c.14-.15.28-.3.42-.43a10.72,10.72,0,0,0,2.68-3.28c1.59.46,3.27.92,5,1.38,5.92,1.61,16.94,4.59,19.37,7.17,4.33,4.58,7.7,13.31,10.67,21,1.51,3.89,2.93,7.56,4.52,11q1,2.19,2,4.49c4.62,10.29,9.85,22,20.94,29.21,5,3.29,11.2,4.23,16.64,5.07l2.18.34c-3.23,4.51-7.83,8.79-12.69,13.31-12.38,11.53-27.78,25.88-20.69,48.77,3.35,10.81,3.51,12-1.88,17.83-.73.8-1.42,1.53-2.06,2.21-4.61,4.91-8.25,8.79-11.27,18.29-.88,2.76-2,4-4.07,6.36a44.55,44.55,0,0,0-5.6,7.4,32.85,32.85,0,0,0-3.62,10.63c-.59,2.95-.92,4.44-2.08,5.86a58.45,58.45,0,0,1-12.63,11.16c-4.7,3-7.44,3.4-8.38,3.34-1.06-1.14-4.93-6.15-10.77-23.49-1.44-4.27-3.44-8.67-5.37-12.93-4.26-9.38-8.66-19.08-6.52-25.71.25-.78.5-1.54.75-2.29,3.42-10.43,6.65-20.28.67-34.62-1.82-4.37-4.73-7.56-7.28-10.37-1.66-1.82-3.53-3.89-3.82-5.08a21.79,21.79,0,0,1-.33-5.05c0-5.23.09-13.12-7.76-20.47-11.07-10.36-24-7.17-32.51-5.06a62.9,62.9,0,0,1-7.3,1.52c-14,1.65-26.59-3.65-34.42-14.55-8.19-11.4-9.38-26.73-3.1-40,3-6.43,7.63-11.6,12.94-17.58,1.17-1.31,2.34-2.63,3.51-4,1.95-2.24,4.1-5.29,6.36-8.51,2.72-3.85,7.76-11,10-12.37C191.55,175.39,201.9,175,209.46,174.76Z"/>
      <path d="M374.05,422.72c10.2-1.67,17.87-12.28,24.13-33.39l11.76-39.64a10,10,0,0,0,.08-5.41l-4.81-18.14a10,10,0,0,0-18.45-2.2c-1.1,2-2.09,4.16-3,6.23-1.61,3.48-3.27,7.08-5,9.07-1,1.11-3.46,2.32-5.87,3.48-5.76,2.78-13.64,6.58-16.66,16.18a29.3,29.3,0,0,0-.66,14.11c.44,3,.54,4-.25,5.89l-.1.24c-3.19,7.47-9.11,21.37-.81,33.19,5.93,8.44,12.16,10.61,17,10.61A16,16,0,0,0,374.05,422.72Zm-3.3-21.88c-1.91-2.72.94-9.43,2.83-13.86l.1-.24c3.05-7.15,2.24-12.65,1.64-16.66-.38-2.57-.51-3.67,0-5.19.4-1.25,2.74-2.46,6.27-4.16,1.56-.76,3.29-1.59,5-2.59L379,383.64c-3.19,10.77-6,15.79-7.65,18C371.17,401.42,371,401.15,370.75,400.84Z"/>
      <path d="M269.35,118.62a10,10,0,1,0-6.61,18.87l.67.24A10,10,0,1,0,270,118.86Z"/>
    </g>
  </g>
</svg>